<?xml version="1.0" ?><!DOCTYPE svg  PUBLIC '-//W3C//DTD SVG 1.1//EN'  'http://www.w3.org/Graphics/SVG/1.1/DTD/svg11.dtd'><svg enable-background="new 0 0 256 256" height="256px" version="1.1" viewBox="0 0 256 256" width="256px" xml:space="preserve" xmlns="http://www.w3.org/2000/svg" xmlns:xlink="http://www.w3.org/1999/xlink"><g id="Layer_1"><radialGradient cx="131.5068" cy="129.4961" gradientUnits="userSpaceOnUse" id="SVGID_1_" r="117.0376"><stop offset="0.8253" style="stop-color:#000000"/><stop offset="1" style="stop-color:#FFFFFF"/></radialGradient><path clip-rule="evenodd" d="M131.507,12.46c64.639,0,117.039,52.399,117.039,117.036   c0,64.638-52.4,117.036-117.039,117.036c-64.639,0-117.039-52.398-117.039-117.036C14.468,64.859,66.868,12.46,131.507,12.46z" fill="url(#SVGID_1_)" fill-rule="evenodd"/><path clip-rule="evenodd" d="M128.507,21.658c58.454,0,105.841,47.386,105.841,105.838   c0,58.453-47.387,105.838-105.841,105.838c-58.455,0-105.841-47.385-105.841-105.838C22.666,69.043,70.052,21.658,128.507,21.658z" fill="#373737" fill-rule="evenodd"/><g><g opacity="0.3"><g><path d="M207,126.505c-1.129-3.114-2.737-5.824-4.813-8.138c-2.073-2.31-4.624-4.124-7.643-5.447      c-3.02-1.321-6.417-1.982-10.191-1.982c-3.02,0-5.826,0.474-8.422,1.415c-2.595,0.944-5.001,2.194-7.219,3.75      c-2.217,1.558-4.296,3.375-6.229,5.449c-1.936,2.076-3.801,4.2-5.591,6.368c-1.888-2.265-3.802-4.409-5.733-6.439      c-1.936-2.027-4.011-3.819-6.228-5.377c-2.217-1.556-4.624-2.806-7.219-3.75c-2.595-0.941-5.449-1.415-8.564-1.415      c-3.775,0-7.172,0.686-10.19,2.051c-3.022,1.369-5.57,3.21-7.645,5.521c-2.023,2.253-3.566,4.914-4.648,7.972      c-0.904-2.065-2.055-3.913-3.454-5.541c-1.87-2.172-4.163-3.906-6.879-5.197c-2.719-1.289-5.844-1.936-9.376-1.936      c-2.854,0-5.403,0.426-7.645,1.274c-2.242,0.85-4.348,2.259-6.318,4.228l-0.204-0.205l2.854-16.2h29.455V90.984h-39.85      l-7.031,39.432h13.045c1.428-1.968,2.955-3.414,4.585-4.329c1.631-0.917,3.737-1.376,6.319-1.376c1.97,0,3.702,0.339,5.198,1.02      c1.493,0.679,2.784,1.629,3.873,2.851c1.085,1.224,1.901,2.65,2.446,4.278c0.542,1.632,0.815,3.365,0.815,5.198      c0,1.767-0.29,3.483-0.867,5.146c-0.579,1.664-1.394,3.126-2.446,4.382c-1.054,1.256-2.343,2.273-3.873,3.057      c-1.528,0.781-3.245,1.17-5.147,1.17c-3.262,0-5.946-0.969-8.051-2.904c-2.106-1.936-3.33-4.534-3.669-7.795H55.976      c0.066,3.738,0.832,7.017,2.293,9.834c1.46,2.819,3.414,5.18,5.859,7.082c2.446,1.902,5.249,3.312,8.41,4.226      c3.158,0.919,6.47,1.376,9.936,1.376c3.6,0.069,6.997-0.526,10.192-1.783c3.191-1.256,5.996-3.035,8.407-5.346      s4.332-5.044,5.758-8.203c0.039-0.087,0.072-0.175,0.11-0.262c1.119,2.892,2.656,5.42,4.658,7.55      c2.169,2.313,4.765,4.152,7.786,5.519c3.019,1.369,6.461,2.051,10.333,2.051c3.113,0,5.919-0.448,8.422-1.345      c2.498-0.896,4.813-2.072,6.937-3.537c2.122-1.461,4.126-3.158,6.015-5.094c1.886-1.932,3.821-3.937,5.804-6.016      c1.79,2.079,3.679,4.084,5.661,6.016c1.982,1.936,4.079,3.633,6.301,5.094c2.215,1.465,4.601,2.642,7.148,3.537      c2.546,0.896,5.283,1.345,8.211,1.345c3.771,0,7.19-0.682,10.26-2.051c3.067-1.366,5.64-3.254,7.713-5.661      c2.075-2.406,3.684-5.211,4.813-8.422c1.133-3.204,1.7-6.648,1.7-10.327C208.7,133.014,208.133,129.617,207,126.505z       M144.577,141.435c-1.414,1.368-2.923,2.596-4.526,3.679c-1.607,1.087-3.305,1.982-5.097,2.688      c-1.795,0.711-3.587,1.064-5.378,1.064c-3.494,0-6.23-1.084-8.21-3.255c-1.981-2.171-2.973-4.955-2.973-8.352      c0-3.112,0.966-5.918,2.902-8.419c1.932-2.498,4.55-3.75,7.854-3.75c1.792,0,3.587,0.403,5.38,1.203      c1.793,0.803,3.513,1.816,5.167,3.043c1.65,1.226,3.231,2.57,4.742,4.03c1.508,1.466,2.831,2.808,3.96,4.035      C147.27,138.723,145.993,140.069,144.577,141.435z M192.563,145.469c-1.889,2.263-4.577,3.396-8.066,3.396      c-1.981,0-3.846-0.332-5.592-0.99c-1.746-0.66-3.421-1.535-5.023-2.618c-1.607-1.085-3.116-2.311-4.532-3.679      c-1.415-1.37-2.736-2.763-3.964-4.177c1.135-1.228,2.407-2.569,3.824-4.035c1.416-1.46,2.901-2.805,4.46-4.03      c1.557-1.227,3.203-2.24,4.954-3.043c1.743-0.8,3.56-1.203,5.448-1.203c3.489,0,6.251,1.18,8.278,3.538      c2.029,2.357,3.043,5.189,3.043,8.491C195.393,140.42,194.452,143.204,192.563,145.469z"/></g></g><g><g><path d="M203.674,123.677c-1.129-3.114-2.737-5.825-4.813-8.139c-2.074-2.31-4.624-4.124-7.643-5.447      c-3.02-1.321-6.417-1.982-10.191-1.982c-3.02,0-5.826,0.474-8.423,1.415c-2.594,0.944-5.001,2.194-7.219,3.75      c-2.217,1.558-4.295,3.374-6.228,5.449c-1.936,2.077-3.801,4.199-5.591,6.368c-1.888-2.265-3.802-4.409-5.733-6.44      c-1.936-2.026-4.011-3.819-6.228-5.377c-2.217-1.557-4.624-2.806-7.219-3.75c-2.595-0.941-5.449-1.415-8.564-1.415      c-3.775,0-7.172,0.686-10.19,2.051c-3.022,1.369-5.57,3.21-7.645,5.521c-2.022,2.253-3.566,4.914-4.647,7.972      c-0.904-2.066-2.055-3.913-3.454-5.542c-1.87-2.172-4.163-3.906-6.879-5.197c-2.719-1.289-5.845-1.936-9.376-1.936      c-2.854,0-5.403,0.426-7.645,1.274c-2.242,0.85-4.348,2.259-6.318,4.228l-0.204-0.205l2.854-16.201h29.455V88.155h-39.85      l-7.031,39.433h13.045c1.428-1.97,2.955-3.415,4.585-4.331c1.631-0.916,3.737-1.375,6.319-1.375c1.97,0,3.702,0.34,5.198,1.02      c1.493,0.679,2.784,1.628,3.873,2.852c1.085,1.224,1.9,2.65,2.446,4.278c0.542,1.631,0.815,3.365,0.815,5.198      c0,1.767-0.291,3.483-0.867,5.146c-0.579,1.665-1.394,3.127-2.446,4.383c-1.054,1.256-2.343,2.273-3.873,3.056      c-1.527,0.782-3.245,1.17-5.146,1.17c-3.262,0-5.947-0.968-8.051-2.903c-2.106-1.936-3.33-4.535-3.669-7.795H52.649      c0.066,3.738,0.832,7.016,2.293,9.834c1.46,2.819,3.414,5.18,5.859,7.082c2.446,1.901,5.249,3.311,8.409,4.226      c3.158,0.918,6.471,1.376,9.936,1.376c3.6,0.068,6.997-0.527,10.191-1.784c3.192-1.256,5.996-3.035,8.407-5.345      c2.411-2.311,4.332-5.045,5.758-8.203c0.039-0.087,0.072-0.176,0.11-0.263c1.12,2.893,2.656,5.421,4.658,7.55      c2.169,2.313,4.765,4.153,7.786,5.519c3.019,1.37,6.461,2.052,10.333,2.052c3.114,0,5.919-0.448,8.422-1.345      c2.498-0.896,4.813-2.072,6.937-3.537c2.122-1.461,4.126-3.158,6.015-5.094c1.886-1.932,3.821-3.938,5.804-6.017      c1.79,2.079,3.679,4.085,5.661,6.017c1.982,1.936,4.079,3.633,6.301,5.094c2.214,1.465,4.601,2.642,7.148,3.537      c2.546,0.896,5.283,1.345,8.211,1.345c3.771,0,7.19-0.682,10.26-2.052c3.067-1.365,5.639-3.254,7.713-5.661      c2.075-2.405,3.684-5.21,4.813-8.422c1.133-3.203,1.7-6.647,1.7-10.327C205.374,130.185,204.807,126.789,203.674,123.677z       M141.251,138.605c-1.414,1.369-2.923,2.597-4.526,3.679c-1.607,1.088-3.305,1.982-5.098,2.688      c-1.794,0.71-3.587,1.063-5.377,1.063c-3.494,0-6.229-1.083-8.21-3.254c-1.982-2.171-2.973-4.955-2.973-8.352      c0-3.112,0.966-5.919,2.902-8.419c1.933-2.499,4.551-3.75,7.855-3.75c1.792,0,3.586,0.403,5.38,1.204      c1.793,0.802,3.513,1.816,5.167,3.042c1.65,1.227,3.231,2.57,4.742,4.031c1.508,1.466,2.831,2.808,3.96,4.035      C143.943,135.895,142.667,137.241,141.251,138.605z M189.236,142.64c-1.89,2.264-4.577,3.396-8.066,3.396      c-1.981,0-3.846-0.331-5.592-0.989c-1.746-0.66-3.421-1.535-5.023-2.619c-1.607-1.084-3.116-2.31-4.532-3.679      c-1.415-1.369-2.736-2.762-3.964-4.176c1.135-1.228,2.407-2.569,3.824-4.035c1.416-1.461,2.9-2.805,4.46-4.031      c1.557-1.226,3.203-2.24,4.954-3.042c1.742-0.801,3.56-1.204,5.448-1.204c3.489,0,6.251,1.18,8.278,3.538      c2.029,2.358,3.043,5.19,3.043,8.492C192.066,137.592,191.126,140.375,189.236,142.64z" fill="#F1F2F2"/></g></g></g></g><g id="Layer_2"><path clip-rule="evenodd" d="M134.007,27.835C76.294,27.835,29.51,74.619,29.51,132.33   c0,33.977,16.227,64.154,41.343,83.238c-28.998-18.879-48.187-51.559-48.187-88.738c0-58.453,47.386-105.839,105.841-105.839   c37.183,0,69.864,19.19,88.743,48.189C198.165,44.063,167.986,27.835,134.007,27.835z" fill-rule="evenodd" opacity="0.3"/><g><g><path clip-rule="evenodd" d="M128.507,10.46c-64.639,0-117.039,52.399-117.039,117.037     c0,64.637,52.399,117.036,117.039,117.036c64.639,0,117.039-52.398,117.039-117.036C245.546,62.859,193.146,10.46,128.507,10.46z      M128.507,231.218c-57.286,0-103.724-46.438-103.724-103.722c0-57.284,46.438-103.722,103.724-103.722     c57.285,0,103.724,46.438,103.724,103.722C232.23,184.78,185.792,231.218,128.507,231.218z" fill="#FFFFFF" fill-rule="evenodd"/></g></g></g></svg>